<svg id="图层_1" data-name="图层 1" xmlns="http://www.w3.org/2000/svg" viewBox="0 0 1496 1496">
  <defs>
    <style>.cls-1{fill:#333;}.cls-2{fill:#fff;}</style>
  </defs>
  <circle class="cls-1" cx="748" cy="748" r="748"/>
  <path class="cls-2"
        d="M369.1,682.42c-2,5.76-.84,11.15,2,16.27a30.26,30.26,0,0,0,9.19,9.75c5.44,3.85,10.9,7.67,16.35,11.51Q579,848.26,761.24,976.64c14.84,10.47,31,13.93,48.69,12.5a80.52,80.52,0,0,0,33.48-10.71q74.64-42.13,149.43-84c21.08-11.85,41.53-24.68,60.74-39.43a281.25,281.25,0,0,0,40.4-37.18,172.82,172.82,0,0,0,22-30.89,126.29,126.29,0,0,0,11.72-29.12,6.64,6.64,0,0,1,1.66-3.11c0,.9.08,1.79.08,2.69,0,40.33.08,80.66,0,121-.05,17.81-4.56,34.58-12.52,50.47a165.78,165.78,0,0,1-22.59,33.48c-14.16,16.55-30.52,30.7-48,43.63a507.28,507.28,0,0,1-53.84,34.47q-76,42.74-152,85.47a80.12,80.12,0,0,1-37.65,10.36,75.49,75.49,0,0,1-23.71-3,58.76,58.76,0,0,1-17.4-8.55q-63.93-45.09-127.94-90.06L383.54,858.59c-2-1.43-4.1-2.85-6.09-4.36a29.45,29.45,0,0,1-7.7-8.45,20.38,20.38,0,0,1-3.15-10.9c0-.66,0-1.33,0-2q0-71,0-142c0-2.5-.2-5,1-7.35.25-.48.92-.74,1.41-1.1Z"/>
  <path class="cls-2"
        d="M368.63,436.9c-.1,1.16-.15,2.33-.3,3.48-1,7.49,1.52,13.82,6.7,19.09a53.61,53.61,0,0,0,7.31,6q41.64,29.38,83.37,58.69Q614.3,628.75,762.85,733.36a63.9,63.9,0,0,0,33,11.49,83.14,83.14,0,0,0,29.68-2.92A78.76,78.76,0,0,0,842,734.81Q893.42,705.89,944.84,677c20.9-11.77,41.89-23.39,62.61-35.45a402.17,402.17,0,0,0,63.07-44.8,235.47,235.47,0,0,0,31.67-33.25c10.55-13.71,19-28.56,24.12-45.16a47.55,47.55,0,0,1,3.11-8.41v3.26c0,40.33.08,80.65,0,121A110.6,110.6,0,0,1,1119,680.13c-7,15.3-16.57,28.85-27.73,41.34a284.68,284.68,0,0,1-39.44,36,474.25,474.25,0,0,1-56,36.67Q917.44,838.32,839,882.28c-18.65,10.43-38.53,12-59.06,6.85a55.25,55.25,0,0,1-18.35-8.83q-73.74-52-147.54-103.86Q497.72,694.6,381.44,612.74a60.37,60.37,0,0,1-7.4-5.92A23.78,23.78,0,0,1,366.55,589q.15-71.24.05-142.47c0-3.31-.13-6.66,2.14-9.46Z"/>
  <path class="cls-2"
        d="M817.51,622.64,566.58,446.05c-.79-.56-1.5-1.22-2.53-2.07,1.19-.81,2.08-1.52,3.05-2.07,25.41-14.28,50.77-28.65,76.26-42.77a341.73,341.73,0,0,1,70.72-29.87,233.36,233.36,0,0,1,57.52-9.46c23.74-.77,46.79,3.06,69.3,10.44,24.24,7.95,46.58,19.7,67.65,33.95,13.69,9.26,26.75,19.3,38.36,31.12A120.28,120.28,0,0,1,964,456.75a70.15,70.15,0,0,1,9.73,25,49.58,49.58,0,0,1-2.69,26,74.45,74.45,0,0,1-9.56,17.48,134.16,134.16,0,0,1-21.11,22.6A243.16,243.16,0,0,1,906,572.62c-10.27,6.17-20.73,12-31.17,18-17.4,9.84-34.84,19.58-52.27,29.36C821,620.82,819.35,621.65,817.51,622.64Z"/>
  <path class="cls-2" d="M369,682.45v-1.26c0,.13,0,.68.06,1.23Z"/>
  <path class="cls-2" d="M368.74,437c0-.28.09-.55.14-.83-.09.23-.17.46-.25.7Z"/>
</svg>
