<svg id="图层_1" data-name="图层 1" xmlns="http://www.w3.org/2000/svg" viewBox="0 0 1496 1496">
  <defs>
    <style>.cls-1{fill:#fff;}.cls-2{fill:#333;}</style>
  </defs>
  <circle class="cls-1" cx="748" cy="748" r="748"/>
  <path class="cls-2"
        d="M368.5,682.72c-2,5.76-.84,11.15,2,16.27a30.12,30.12,0,0,0,9.19,9.74c5.44,3.86,10.9,7.68,16.35,11.52Q578.37,848.56,760.64,976.94c14.84,10.47,31,13.93,48.69,12.5,12-1,23-4.79,33.49-10.71q74.63-42.13,149.42-84c21.09-11.85,41.54-24.68,60.74-39.43a280.72,280.72,0,0,0,40.4-37.18,172.32,172.32,0,0,0,22-30.89,125.4,125.4,0,0,0,11.72-29.12,6.64,6.64,0,0,1,1.66-3.11c0,.9.08,1.79.08,2.69,0,40.33.08,80.65,0,121,0,17.81-4.56,34.58-12.52,50.47a165.78,165.78,0,0,1-22.59,33.48c-14.16,16.55-30.52,30.7-48,43.63a509.45,509.45,0,0,1-53.84,34.47q-76,42.73-152,85.47a80.12,80.12,0,0,1-37.65,10.36,75.53,75.53,0,0,1-23.71-3,58.76,58.76,0,0,1-17.4-8.55q-63.93-45.09-127.93-90.07L383,858.89c-2.05-1.43-4.11-2.85-6.1-4.36a29.58,29.58,0,0,1-7.7-8.45,20.45,20.45,0,0,1-3.14-10.9c0-.66,0-1.33,0-2v-142c0-2.5-.2-5,1-7.35.25-.48.93-.74,1.41-1.1Z"/>
  <path class="cls-2"
        d="M368,437.19c-.09,1.17-.15,2.33-.3,3.49-1,7.49,1.52,13.82,6.71,19.09a52.92,52.92,0,0,0,7.3,6q41.65,29.38,83.37,58.69Q613.7,629.06,762.25,733.66a63.93,63.93,0,0,0,33,11.49A83.14,83.14,0,0,0,825,742.23a78.84,78.84,0,0,0,16.47-7.12q51.39-28.92,102.8-57.79c20.9-11.77,41.89-23.39,62.62-35.46a401.92,401.92,0,0,0,63.07-44.79,236,236,0,0,0,31.66-33.25c10.56-13.71,19-28.56,24.13-45.16a46,46,0,0,1,3.11-8.41v3.26c0,40.32.07,80.65,0,121a110.51,110.51,0,0,1-10.43,45.93c-7,15.31-16.58,28.86-27.73,41.35a284.76,284.76,0,0,1-39.45,36,473.43,473.43,0,0,1-56,36.67q-78.37,44.16-156.84,88.12c-18.66,10.43-38.54,12-59.06,6.85A55.16,55.16,0,0,1,761,880.6q-73.76-52-147.55-103.87Q497.12,694.91,380.84,613a59.52,59.52,0,0,1-7.39-5.92A23.71,23.71,0,0,1,366,589.25q.14-71.24.05-142.47c0-3.31-.14-6.66,2.13-9.46Z"/>
  <path class="cls-2"
        d="M816.91,622.94,566,446.35c-.79-.56-1.5-1.22-2.53-2.07,1.19-.81,2.08-1.52,3.06-2.07,25.41-14.28,50.76-28.66,76.26-42.77a341.5,341.5,0,0,1,70.72-29.87A233.77,233.77,0,0,1,771,360.1c23.73-.76,46.79,3.07,69.29,10.45,24.24,7.95,46.58,19.7,67.65,33.95,13.69,9.26,26.75,19.3,38.36,31.12a120.28,120.28,0,0,1,17.13,21.43,70,70,0,0,1,9.73,25,49.48,49.48,0,0,1-2.69,26,74.45,74.45,0,0,1-9.56,17.48,133.75,133.75,0,0,1-21.11,22.6,243.64,243.64,0,0,1-34.41,24.81c-10.28,6.17-20.74,12.05-31.18,18Q848.14,605.62,822,620.23C820.37,621.12,818.75,622,816.91,622.94Z"/>
  <path class="cls-2" d="M368.43,682.75v-1.26c0,.13,0,.68.06,1.23Z"/>
  <path class="cls-2" d="M368.14,437.32c.05-.28.09-.55.14-.83-.09.23-.17.46-.25.7Z"/>
</svg>
